<svg width="44" height="50" viewBox="0 0 44 50" fill="none" xmlns="http://www.w3.org/2000/svg">
<g filter="url(#filter0_d_67_820)">
<path d="M10 3H13V6H10V3Z" fill="#44513B"/>
<path d="M13 3H16V6H13V3Z" fill="#44513B"/>
<path d="M16 3H19V6H16V3Z" fill="#44513B"/>
<path d="M19 3H22V6H19V3Z" fill="#44513B"/>
<path d="M22 3H25V6H22V3Z" fill="#44513B"/>
<path d="M25 3H28V6H25V3Z" fill="#44513B"/>
<path d="M28 3H31V6H28V3Z" fill="#44513B"/>
<path d="M31 3H34V6H31V3Z" fill="#44513B"/>
<path d="M34 3H37V6H34V3Z" fill="#44513B"/>
<path d="M37 6H40V9H37V6Z" fill="#44513B"/>
<path d="M37 9H40V12H37V9Z" fill="#44513B"/>
<path d="M37 12H40V15H37V12Z" fill="#44513B"/>
<path d="M37 15H40V18H37V15Z" fill="#44513B"/>
<path d="M37 18H40V21H37V18Z" fill="#44513B"/>
<path d="M37 21H40V24H37V21Z" fill="#44513B"/>
<path d="M37 24H40V27H37V24Z" fill="#44513B"/>
<path d="M37 27H40V30H37V27Z" fill="#44513B"/>
<path d="M37 30H40V33H37V30Z" fill="#44513B"/>
<path d="M37 33H40V36H37V33Z" fill="#44513B"/>
<path d="M37 36H40V39H37V36Z" fill="#44513B"/>
<path d="M37 39H40V42H37V39Z" fill="#44513B"/>
<path d="M34 42H37V45H34V42Z" fill="#44513B"/>
<path d="M10 42H13V45H10V42Z" fill="#44513B"/>
<path d="M13 42H16V45H13V42Z" fill="#44513B"/>
<path d="M16 42H19V45H16V42Z" fill="#44513B"/>
<path d="M19 42H22V45H19V42Z" fill="#44513B"/>
<path d="M22 42H25V45H22V42Z" fill="#44513B"/>
<path d="M25 42H28V45H25V42Z" fill="#44513B"/>
<path d="M28 42H31V45H28V42Z" fill="#44513B"/>
<path d="M31 42H34V45H31V42Z" fill="#44513B"/>
<path d="M4 39H7V42H4V39Z" fill="#44513B"/>
<path d="M7 42H10V45H7V42Z" fill="#44513B"/>
<path d="M4 9H7V12H4V9Z" fill="#44513B"/>
<path d="M4 12H7V15H4V12Z" fill="#44513B"/>
<path d="M4 15H7V18H4V15Z" fill="#44513B"/>
<path d="M4 18H7V21H4V18Z" fill="#44513B"/>
<path d="M4 21H7V24H4V21Z" fill="#44513B"/>
<path d="M4 24H7V27H4V24Z" fill="#44513B"/>
<path d="M4 27H7V30H4V27Z" fill="#44513B"/>
<path d="M4 30H7V33H4V30Z" fill="#44513B"/>
<path d="M4 33H7V36H4V33Z" fill="#44513B"/>
<path d="M4 36H7V39H4V36Z" fill="#44513B"/>
<path d="M4 6H7V9H4V6Z" fill="#44513B"/>
<path d="M7 3H10V6H7V3Z" fill="#44513B"/>
<path d="M14 11H16.8333V14H14V11Z" fill="#44513B"/>
<path d="M16.8333 11H19.6667V14H16.8333V11Z" fill="#44513B"/>
<path d="M19.6667 11H22.5V14H19.6667V11Z" fill="#44513B"/>
<path d="M22.5 11H25.3333V14H22.5V11Z" fill="#44513B"/>
<path d="M25.3333 11H28.1667V14H25.3333V11Z" fill="#44513B"/>
<path d="M28.1667 11H31V14H28.1667V11Z" fill="#44513B"/>
<path d="M28 26H31V29H28V26Z" fill="#44513B"/>
<path d="M28 29H31V32H28V29Z" fill="#44513B"/>
<path d="M28 32H31V35H28V32Z" fill="#44513B"/>
<path d="M28 35H31V38H28V35Z" fill="#44513B"/>
<path d="M28 17H31V20H28V17Z" fill="#44513B"/>
<path d="M21 17H24V20H21V17Z" fill="#44513B"/>
<path d="M14 17H17V20H14V17Z" fill="#44513B"/>
<path d="M21 26H24V29H21V26Z" fill="#44513B"/>
<path d="M14 26H17V29H14V26Z" fill="#44513B"/>
<path d="M21 35H24V38H21V35Z" fill="#44513B"/>
<path d="M14 35H17V38H14V35Z" fill="#44513B"/>
</g>
<defs>
<filter id="filter0_d_67_820" x="0" y="0" width="44" height="50" filterUnits="userSpaceOnUse" color-interpolation-filters="sRGB">
<feFlood flood-opacity="0" result="BackgroundImageFix"/>
<feColorMatrix in="SourceAlpha" type="matrix" values="0 0 0 0 0 0 0 0 0 0 0 0 0 0 0 0 0 0 127 0" result="hardAlpha"/>
<feOffset dy="1"/>
<feGaussianBlur stdDeviation="2"/>
<feComposite in2="hardAlpha" operator="out"/>
<feColorMatrix type="matrix" values="0 0 0 0 0 0 0 0 0 0 0 0 0 0 0 0 0 0 0.25 0"/>
<feBlend mode="normal" in2="BackgroundImageFix" result="effect1_dropShadow_67_820"/>
<feBlend mode="normal" in="SourceGraphic" in2="effect1_dropShadow_67_820" result="shape"/>
</filter>
</defs>
</svg>
