<svg width="16" height="17" viewBox="0 0 16 17" fill="none" xmlns="http://www.w3.org/2000/svg">
<path d="M14.4 9.8H16V11.4H14.4V9.8Z" fill="#44513B"/>
<path d="M14.4 11.4H16V13H14.4V11.4Z" fill="#44513B"/>
<path d="M12.8 11.4H14.4V13H12.8V11.4Z" fill="#44513B"/>
<path d="M3.2 11.4H4.8V13H3.2V11.4Z" fill="#44513B"/>
<path d="M4.8 11.4H6.4V13H4.8V11.4Z" fill="#44513B"/>
<path d="M6.4 11.4H8V13H6.4V11.4Z" fill="#44513B"/>
<path d="M8 11.4H9.6V13H8V11.4Z" fill="#44513B"/>
<path d="M9.6 11.4H11.2V13H9.6V11.4Z" fill="#44513B"/>
<path d="M11.2 11.4H12.8V13H11.2V11.4Z" fill="#44513B"/>
<path d="M1.6 13H3.2V14.6H1.6V13Z" fill="#44513B"/>
<path d="M0 14.6H1.6V16.2H0V14.6Z" fill="#44513B"/>
<path d="M0 1.8H1.6V3.4H0V1.8Z" fill="#44513B"/>
<path d="M0 3.4H1.6V5H0V3.4Z" fill="#44513B"/>
<path d="M0 5H1.6V6.6H0V5Z" fill="#44513B"/>
<path d="M0 6.6H1.6V8.2H0V6.6Z" fill="#44513B"/>
<path d="M0 8.2H1.6V9.8H0V8.2Z" fill="#44513B"/>
<path d="M0 9.8H1.6V11.4H0V9.8Z" fill="#44513B"/>
<path d="M0 11.4H1.6V13H0V11.4Z" fill="#44513B"/>
<path d="M0 13H1.6V14.6H0V13Z" fill="#44513B"/>
<path d="M0 0.199997H1.6V1.8H0V0.199997Z" fill="#44513B"/>
<path d="M1.6 0.199997H3.2V1.8H1.6V0.199997Z" fill="#44513B"/>
<path d="M3.2 0.199997H4.8V1.8H3.2V0.199997Z" fill="#44513B"/>
<path d="M4.8 0.199997H6.4V1.8H4.8V0.199997Z" fill="#44513B"/>
<path d="M6.4 0.199997H8V1.8H6.4V0.199997Z" fill="#44513B"/>
<path d="M8 0.199997H9.6V1.8H8V0.199997Z" fill="#44513B"/>
<path d="M9.6 0.199997H11.2V1.8H9.6V0.199997Z" fill="#44513B"/>
<path d="M11.2 0.199997H12.8V1.8H11.2V0.199997Z" fill="#44513B"/>
<path d="M12.8 0.199997H14.4V1.8H12.8V0.199997Z" fill="#44513B"/>
<path d="M14.4 1.8H16V3.4H14.4V1.8Z" fill="#44513B"/>
<path d="M14.4 3.4H16V5H14.4V3.4Z" fill="#44513B"/>
<path d="M14.4 5H16V6.6H14.4V5Z" fill="#44513B"/>
<path d="M14.4 6.6H16V8.2H14.4V6.6Z" fill="#44513B"/>
<path d="M14.4 8.2H16V9.8H14.4V8.2Z" fill="#44513B"/>
</svg>
