<svg width="44" height="50" viewBox="0 0 44 50" fill="none" xmlns="http://www.w3.org/2000/svg">
<g filter="url(#filter0_d_67_817)">
<path d="M19 3H22V6H19V3Z" fill="#44513B"/>
<path d="M16 6H19V9H16V6Z" fill="#44513B"/>
<path d="M19 6H22V9H19V6Z" fill="#44513B"/>
<path d="M22 6H25V9H22V6Z" fill="#44513B"/>
<path d="M13 9H16V12H13V9Z" fill="#44513B"/>
<path d="M13 6H16V9H13V6Z" fill="#44513B"/>
<path d="M7 12H10V15H7V12Z" fill="#44513B"/>
<path d="M4 15H7V18H4V15Z" fill="#44513B"/>
<path d="M10 12H13V15H10V12Z" fill="#44513B"/>
<path d="M10 9H13V12H10V9Z" fill="#44513B"/>
<path d="M4 18H7V21H4V18Z" fill="#44513B"/>
<path d="M22 3H25V6H22V3Z" fill="#44513B"/>
<path d="M25 6H28V9H25V6Z" fill="#44513B"/>
<path d="M28 9H31V12H28V9Z" fill="#44513B"/>
<path d="M28 6H31V9H28V6Z" fill="#44513B"/>
<path d="M34 12H37V15H34V12Z" fill="#44513B"/>
<path d="M37 15H40V18H37V15Z" fill="#44513B"/>
<path d="M31 12H34V15H31V12Z" fill="#44513B"/>
<path d="M31 9H34V12H31V9Z" fill="#44513B"/>
<path d="M37 18H40V21H37V18Z" fill="#44513B"/>
<path d="M37 21H40V24H37V21Z" fill="#44513B"/>
<path d="M37 24H40V27H37V24Z" fill="#44513B"/>
<path d="M37 27H40V30H37V27Z" fill="#44513B"/>
<path d="M37 30H40V33H37V30Z" fill="#44513B"/>
<path d="M37 33H40V36H37V33Z" fill="#44513B"/>
<path d="M37 36H40V39H37V36Z" fill="#44513B"/>
<path d="M37 39H40V42H37V39Z" fill="#44513B"/>
<path d="M37 42H40V45H37V42Z" fill="#44513B"/>
<path d="M34 42H37V45H34V42Z" fill="#44513B"/>
<path d="M7 42H10V45H7V42Z" fill="#44513B"/>
<path d="M10 42H13V45H10V42Z" fill="#44513B"/>
<path d="M22 42H25V45H22V42Z" fill="#44513B"/>
<path d="M25 42H28V45H25V42Z" fill="#44513B"/>
<path d="M28 42H31V45H28V42Z" fill="#44513B"/>
<path d="M31 42H34V45H31V42Z" fill="#44513B"/>
<path d="M4 42H7V45H4V42Z" fill="#44513B"/>
<path d="M4 39H7V42H4V39Z" fill="#44513B"/>
<path d="M4 21H7V24H4V21Z" fill="#44513B"/>
<path d="M4 24H7V27H4V24Z" fill="#44513B"/>
<path d="M4 27H7V30H4V27Z" fill="#44513B"/>
<path d="M4 30H7V33H4V30Z" fill="#44513B"/>
<path d="M4 33H7V36H4V33Z" fill="#44513B"/>
<path d="M4 36H7V39H4V36Z" fill="#44513B"/>
<path d="M10 27H13V30H10V27Z" fill="#44513B"/>
<path d="M10 30H13V33H10V30Z" fill="#44513B"/>
<path d="M10 33H13V36H10V33Z" fill="#44513B"/>
<path d="M10 36H13V39H10V36Z" fill="#44513B"/>
<path d="M10 39H13V42H10V39Z" fill="#44513B"/>
<path d="M10 42H13V45H10V42Z" fill="#44513B"/>
<path d="M13 24H16V27H13V24Z" fill="#44513B"/>
<path d="M16 24H19V27H16V24Z" fill="#44513B"/>
<path d="M19 24H22V27H19V24Z" fill="#44513B"/>
<path d="M22 27H25V30H22V27Z" fill="#44513B"/>
<path d="M22 30H25V33H22V30Z" fill="#44513B"/>
<path d="M22 33H25V36H22V33Z" fill="#44513B"/>
<path d="M22 36H25V39H22V36Z" fill="#44513B"/>
<path d="M22 39H25V42H22V39Z" fill="#44513B"/>
<path d="M22 42H25V45H22V42Z" fill="#44513B"/>
</g>
<defs>
<filter id="filter0_d_67_817" x="0" y="0" width="44" height="50" filterUnits="userSpaceOnUse" color-interpolation-filters="sRGB">
<feFlood flood-opacity="0" result="BackgroundImageFix"/>
<feColorMatrix in="SourceAlpha" type="matrix" values="0 0 0 0 0 0 0 0 0 0 0 0 0 0 0 0 0 0 127 0" result="hardAlpha"/>
<feOffset dy="1"/>
<feGaussianBlur stdDeviation="2"/>
<feComposite in2="hardAlpha" operator="out"/>
<feColorMatrix type="matrix" values="0 0 0 0 0 0 0 0 0 0 0 0 0 0 0 0 0 0 0.25 0"/>
<feBlend mode="normal" in2="BackgroundImageFix" result="effect1_dropShadow_67_817"/>
<feBlend mode="normal" in="SourceGraphic" in2="effect1_dropShadow_67_817" result="shape"/>
</filter>
</defs>
</svg>
