<svg width="16" height="19" viewBox="0 0 16 19" fill="none" xmlns="http://www.w3.org/2000/svg">
<path d="M3.2 7.2H4.8V8.8H3.2V7.2Z" fill="#44513B"/>
<path d="M3.2 8.8H4.8V10.4H3.2V8.8Z" fill="#44513B"/>
<path d="M3.2 10.4H4.8V12H3.2V10.4Z" fill="#44513B"/>
<path d="M3.2 12H4.8V13.6H3.2V12Z" fill="#44513B"/>
<path d="M3.2 13.6H4.8V15.2H3.2V13.6Z" fill="#44513B"/>
<path d="M3.2 15.2H4.8V16.8H3.2V15.2Z" fill="#44513B"/>
<path d="M3.2 16.8H4.8V18.4H3.2V16.8Z" fill="#44513B"/>
<path d="M9.6 4H11.2V5.6H9.6V4Z" fill="#44513B"/>
<path d="M9.6 5.6H11.2V7.2H9.6V5.6Z" fill="#44513B"/>
<path d="M10.4 2.4H12V4H10.4V2.4Z" fill="#44513B"/>
<path d="M8.8 7.2H10.4V8.8H8.8V7.2Z" fill="#44513B"/>
<path d="M11.2 5.6H12.8V7.2H11.2V5.6Z" fill="#44513B"/>
<path d="M12.8 7.2H14.4V8.8H12.8V7.2Z" fill="#44513B"/>
<path d="M14.4 8.8H16V10.4H14.4V8.8Z" fill="#44513B"/>
<path d="M14.4 10.4H16V12H14.4V10.4Z" fill="#44513B"/>
<path d="M14.4 12H16V13.6H14.4V12Z" fill="#44513B"/>
<path d="M12.8 13.6H14.4V15.2H12.8V13.6Z" fill="#44513B"/>
<path d="M12.8 15.2H14.4V16.8H12.8V15.2Z" fill="#44513B"/>
<path d="M11.2 16.8H12.8V18.4H11.2V16.8Z" fill="#44513B"/>
<path d="M1.6 16.8H3.2V18.4H1.6V16.8Z" fill="#44513B"/>
<path d="M3.2 16.8H4.8V18.4H3.2V16.8Z" fill="#44513B"/>
<path d="M4.8 16.8H6.4V18.4H4.8V16.8Z" fill="#44513B"/>
<path d="M6.4 15.2H8V16.8H6.4V15.2Z" fill="#44513B"/>
<path d="M8 16.8H9.6V18.4H8V16.8Z" fill="#44513B"/>
<path d="M9.6 16.8H11.2V18.4H9.6V16.8Z" fill="#44513B"/>
<path d="M0 15.2H1.6V16.8H0V15.2Z" fill="#44513B"/>
<path d="M0 8.8H1.6V10.4H0V8.8Z" fill="#44513B"/>
<path d="M0 10.4H1.6V12H0V10.4Z" fill="#44513B"/>
<path d="M0 12H1.6V13.6H0V12Z" fill="#44513B"/>
<path d="M0 13.6H1.6V15.2H0V13.6Z" fill="#44513B"/>
<path d="M0 7.2H1.6V8.8H0V7.2Z" fill="#44513B"/>
<path d="M1.6 7.2H3.2V8.8H1.6V7.2Z" fill="#44513B"/>
<path d="M1.6 5.6H3.2V7.2H1.6V5.6Z" fill="#44513B"/>
<path d="M3.2 7.2H4.8V8.8H3.2V7.2Z" fill="#44513B"/>
<path d="M3.2 5.6H4.8V7.2H3.2V5.6Z" fill="#44513B"/>
<path d="M4.8 5.6H6.4V7.2H4.8V5.6Z" fill="#44513B"/>
<path d="M6.4 0.8H8V2.4H6.4V0.8Z" fill="#44513B"/>
<path d="M6.4 2.4H8V4H6.4V2.4Z" fill="#44513B"/>
<path d="M4.8 4H6.4V5.6H4.8V4Z" fill="#44513B"/>
<path d="M8 0H9.6V1.6H8V0Z" fill="#44513B"/>
<path d="M9.6 0.8H11.2V2.4H9.6V0.8Z" fill="#44513B"/>
</svg>
