<svg width="42" height="32" viewBox="0 0 42 32" fill="none" xmlns="http://www.w3.org/2000/svg">
<g clip-path="url(#clip0_67_903)">
<mask id="mask0_67_903" style="mask-type:luminance" maskUnits="userSpaceOnUse" x="0" y="0" width="42" height="32">
<path d="M42 0H0V32H42V0Z" fill="white"/>
</mask>
<g mask="url(#mask0_67_903)">
<path d="M26 0H16C7.16344 0 0 7.16344 0 16C0 24.8366 7.16344 32 16 32H26C34.8366 32 42 24.8366 42 16C42 7.16344 34.8366 0 26 0Z" fill="#44513B"/>
<path d="M18 0H16V2H18V0Z" fill="#44513B"/>
<path d="M20 0H18V2H20V0Z" fill="#44513B"/>
<path d="M22 0H20V2H22V0Z" fill="#44513B"/>
<path d="M24 0H22V2H24V0Z" fill="#44513B"/>
<path d="M26 0H24V2H26V0Z" fill="#44513B"/>
<path d="M28 0H26V2H28V0Z" fill="#44513B"/>
<path d="M32 0H30V2H32V0Z" fill="#44513B"/>
<path d="M36 2H34V4H36V2Z" fill="#44513B"/>
<path d="M38 4H36V6H38V4Z" fill="#44513B"/>
<path d="M40 6H38V8H40V6Z" fill="#44513B"/>
<path d="M42 8H40V10H42V8Z" fill="#44513B"/>
<path d="M42 10H40V12H42V10Z" fill="#44513B"/>
<path d="M42 12H40V14H42V12Z" fill="#44513B"/>
<path d="M42 14H40V16H42V14Z" fill="#44513B"/>
<path d="M30 0H28V2H30V0Z" fill="#44513B"/>
<path d="M34 0H32V2H34V0Z" fill="#44513B"/>
<path d="M42 16H40V18H42V16Z" fill="#44513B"/>
<path d="M42 18H40V20H42V18Z" fill="#44513B"/>
<path d="M42 20H40V22H42V20Z" fill="#44513B"/>
<path d="M42 22H40V24H42V22Z" fill="#44513B"/>
<path d="M40 24H38V26H40V24Z" fill="#44513B"/>
<path d="M38 26H36V28H38V26Z" fill="#44513B"/>
<path d="M36 28H34V30H36V28Z" fill="#44513B"/>
<path d="M32 30H30V32H32V30Z" fill="#44513B"/>
<path d="M28 30H26V32H28V30Z" fill="#44513B"/>
<path d="M30 30H28V32H30V30Z" fill="#44513B"/>
<path d="M34 30H32V32H34V30Z" fill="#44513B"/>
<path d="M24 30H22V32H24V30Z" fill="#44513B"/>
<path d="M26 30H24V32H26V30Z" fill="#44513B"/>
<path d="M2 16H0V18H2V16Z" fill="#44513B"/>
<path d="M2 18H0V20H2V18Z" fill="#44513B"/>
<path d="M2 20H0V22H2V20Z" fill="#44513B"/>
<path d="M2 22H0V24H2V22Z" fill="#44513B"/>
<path d="M4 24H2V26H4V24Z" fill="#44513B"/>
<path d="M6 26H4V28H6V26Z" fill="#44513B"/>
<path d="M8 28H6V30H8V28Z" fill="#44513B"/>
<path d="M12 30H10V32H12V30Z" fill="#44513B"/>
<path d="M10 30H8V32H10V30Z" fill="#44513B"/>
<path d="M14 30H12V32H14V30Z" fill="#44513B"/>
<path d="M16 30H14V32H16V30Z" fill="#44513B"/>
<path d="M12 0H10V2H12V0Z" fill="#44513B"/>
<path d="M8 2H6V4H8V2Z" fill="#44513B"/>
<path d="M6 4H4V6H6V4Z" fill="#44513B"/>
<path d="M4 6H2V8H4V6Z" fill="#44513B"/>
<path d="M2 8H0V10H2V8Z" fill="#44513B"/>
<path d="M2 10H0V12H2V10Z" fill="#44513B"/>
<path d="M2 12H0V14H2V12Z" fill="#44513B"/>
<path d="M2 14H0V16H2V14Z" fill="#44513B"/>
<path d="M10 0H8V2H10V0Z" fill="#44513B"/>
<path d="M14 0H12V2H14V0Z" fill="#44513B"/>
<path d="M16 0H14V2H16V0Z" fill="#44513B"/>
</g>
<path d="M12 15V11.4023H13.1953V15H12ZM7.19531 21V10.2012H12V11.4023H8.39648V15H12V16.2012H8.39648V21H7.19531ZM15.5918 21V19.8047H19.1953V21H15.5918ZM14.3906 19.8047V13.8047H15.5918V19.8047H14.3906ZM19.1953 19.8047V13.8047H20.3906V19.8047H19.1953ZM15.5918 13.8047V12.6035H19.1953V13.8047H15.5918ZM22.7871 21V19.8047H26.3906V21H22.7871ZM21.5859 19.8047V18.6035H22.7871V19.8047H21.5859ZM26.3906 19.8047V17.4023H27.5859V19.8047H26.3906ZM22.7871 17.4023V16.2012H26.3906V17.4023H22.7871ZM21.5859 16.2012V13.8047H22.7871V16.2012H21.5859ZM26.3906 15V13.8047H27.5859V15H26.3906ZM22.7871 13.8047V12.6035H26.3906V13.8047H22.7871ZM31.1836 21V19.8047H33.5859V21H31.1836ZM33.5859 19.8047V18.6035H34.7812V19.8047H33.5859ZM29.9824 19.8047V13.8047H28.7812V12.6035H29.9824V10.2012H31.1836V12.6035H33.5859V13.8047H31.1836V19.8047H29.9824Z" fill="#A5B393"/>
</g>
<defs>
<clipPath id="clip0_67_903">
<rect width="42" height="32" fill="white"/>
</clipPath>
</defs>
</svg>
