<svg width="32" height="28" viewBox="0 0 32 28" fill="none" xmlns="http://www.w3.org/2000/svg">
<g filter="url(#filter0_d_67_1039)">
<path d="M16 3H18V5H16V3Z" fill="#44513B"/>
<path d="M16 5H18V7H16V5Z" fill="#44513B"/>
<path d="M18 7H20V9H18V7Z" fill="#44513B"/>
<path d="M18 9H20V11H18V9Z" fill="#44513B"/>
<path d="M24 9H26V11H24V9Z" fill="#44513B"/>
<path d="M20 9H22V11H20V9Z" fill="#44513B"/>
<path d="M22 9H24V11H22V9Z" fill="#44513B"/>
<path d="M26 9H28V11H26V9Z" fill="#44513B"/>
<path d="M24 11H26V13H24V11Z" fill="#44513B"/>
<path d="M22 13H24V15H22V13Z" fill="#44513B"/>
<path d="M20 15H22V17H20V15Z" fill="#44513B"/>
<path d="M20 17H22V19H20V17Z" fill="#44513B"/>
<path d="M20 19H22V21H20V19Z" fill="#44513B"/>
<path d="M22 21H24V23H22V21Z" fill="#44513B"/>
<path d="M18 19H20V21H18V19Z" fill="#44513B"/>
<path d="M14 17H16V19H14V17Z" fill="#44513B"/>
<path d="M20 21H22V23H20V21Z" fill="#44513B"/>
<path d="M16 17H18V19H16V17Z" fill="#44513B"/>
<path d="M12 19H14V21H12V19Z" fill="#44513B"/>
<path d="M8 21H10V23H8V21Z" fill="#44513B"/>
<path d="M10 21H12V23H10V21Z" fill="#44513B"/>
<path d="M15 15H17V17H15V15Z" fill="#44513B"/>
<path d="M10 15H12V17H10V15Z" fill="#44513B"/>
<path d="M10 17H12V19H10V17Z" fill="#44513B"/>
<path d="M10 19H12V21H10V19Z" fill="#44513B"/>
<path d="M6 11H8V13H6V11Z" fill="#44513B"/>
<path d="M4 9H6V11H4V9Z" fill="#44513B"/>
<path d="M8 13H10V15H8V13Z" fill="#44513B"/>
<path d="M6 9H8V11H6V9Z" fill="#44513B"/>
<path d="M8 9H10V11H8V9Z" fill="#44513B"/>
<path d="M10 9H12V11H10V9Z" fill="#44513B"/>
<path d="M12 9H14V11H12V9Z" fill="#44513B"/>
<path d="M14 3H16V5H14V3Z" fill="#44513B"/>
<path d="M14 5H16V7H14V5Z" fill="#44513B"/>
<path d="M12 7H14V9H12V7Z" fill="#44513B"/>
</g>
<defs>
<filter id="filter0_d_67_1039" x="0" y="0" width="32" height="28" filterUnits="userSpaceOnUse" color-interpolation-filters="sRGB">
<feFlood flood-opacity="0" result="BackgroundImageFix"/>
<feColorMatrix in="SourceAlpha" type="matrix" values="0 0 0 0 0 0 0 0 0 0 0 0 0 0 0 0 0 0 127 0" result="hardAlpha"/>
<feOffset dy="1"/>
<feGaussianBlur stdDeviation="2"/>
<feComposite in2="hardAlpha" operator="out"/>
<feColorMatrix type="matrix" values="0 0 0 0 0 0 0 0 0 0 0 0 0 0 0 0 0 0 0.25 0"/>
<feBlend mode="normal" in2="BackgroundImageFix" result="effect1_dropShadow_67_1039"/>
<feBlend mode="normal" in="SourceGraphic" in2="effect1_dropShadow_67_1039" result="shape"/>
</filter>
</defs>
</svg>
